<svg xmlns="http://www.w3.org/2000/svg" width="520" height="320" viewBox="0 0 520 320" fill="none">
<text x="150" y="28" font-family="Plus Jakarta Sans, sans-serif" font-size="14" font-weight="700" fill="#30bd44" letter-spacing="1">VERDE</text><text x="20" y="135" font-family="Plus Jakarta Sans, sans-serif" font-size="13" font-weight="700" fill="#200068">ARC ◜ Gauge</text><text x="70" y="90" font-family="Roboto, sans-serif" font-size="12" font-weight="600" fill="#5a5a6a">SM</text><g transform="translate(150,60) scale(0.9)">
    <path d="M 3 17 A 12 12 0 0 1 27 17" stroke="#200068" stroke-opacity="0.14" stroke-width="3" stroke-linecap="round"/>
    <path d="M 3 17 A 12 12 0 0 1 6.5 8.5" stroke="#30bd44" stroke-width="3" stroke-linecap="round"/>
    <line x1="15" y1="17" x2="7.2" y2="9.4" stroke="#30bd44" stroke-width="1.8" stroke-linecap="round"/>
    <circle cx="7.2" cy="9.4" r="2" fill="#30bd44"/>
    <circle cx="15" cy="17" r="2" fill="#200068" fill-opacity="0.35"/>
  </g><g transform="translate(260,60) scale(0.9)">
    <path d="M 3 17 A 12 12 0 0 1 27 17" stroke="#200068" stroke-opacity="0.14" stroke-width="3" stroke-linecap="round"/>
    <path d="M 3 17 A 12 12 0 0 1 16.9 5.1" stroke="#30bd44" stroke-width="3" stroke-linecap="round"/>
    <line x1="15" y1="17" x2="16.7" y2="6.2" stroke="#30bd44" stroke-width="1.8" stroke-linecap="round"/>
    <circle cx="16.7" cy="6.2" r="2" fill="#30bd44"/>
    <circle cx="15" cy="17" r="2" fill="#200068" fill-opacity="0.35"/>
  </g><g transform="translate(380,60) scale(0.9)">
    <path d="M 3 17 A 12 12 0 0 1 27 17" stroke="#200068" stroke-opacity="0.14" stroke-width="3" stroke-linecap="round"/>
    <path d="M 3 17 A 12 12 0 0 1 27 17" stroke="#30bd44" stroke-width="3" stroke-linecap="round"/>
    <line x1="15" y1="17" x2="27" y2="17" stroke="#30bd44" stroke-width="1.8" stroke-linecap="round"/>
    <circle cx="27" cy="17" r="2" fill="#30bd44"/>
    <circle cx="15" cy="17" r="2" fill="#200068" fill-opacity="0.35"/>
  </g><text x="70" y="170" font-family="Roboto, sans-serif" font-size="12" font-weight="600" fill="#5a5a6a">MD</text><g transform="translate(150,140) scale(1.15)">
    <path d="M 3 17 A 12 12 0 0 1 27 17" stroke="#200068" stroke-opacity="0.14" stroke-width="3" stroke-linecap="round"/>
    <path d="M 3 17 A 12 12 0 0 1 6.5 8.5" stroke="#30bd44" stroke-width="3" stroke-linecap="round"/>
    <line x1="15" y1="17" x2="7.2" y2="9.4" stroke="#30bd44" stroke-width="1.8" stroke-linecap="round"/>
    <circle cx="7.2" cy="9.4" r="2" fill="#30bd44"/>
    <circle cx="15" cy="17" r="2" fill="#200068" fill-opacity="0.35"/>
  </g><g transform="translate(260,140) scale(1.15)">
    <path d="M 3 17 A 12 12 0 0 1 27 17" stroke="#200068" stroke-opacity="0.14" stroke-width="3" stroke-linecap="round"/>
    <path d="M 3 17 A 12 12 0 0 1 16.9 5.1" stroke="#30bd44" stroke-width="3" stroke-linecap="round"/>
    <line x1="15" y1="17" x2="16.7" y2="6.2" stroke="#30bd44" stroke-width="1.8" stroke-linecap="round"/>
    <circle cx="16.7" cy="6.2" r="2" fill="#30bd44"/>
    <circle cx="15" cy="17" r="2" fill="#200068" fill-opacity="0.35"/>
  </g><g transform="translate(380,140) scale(1.15)">
    <path d="M 3 17 A 12 12 0 0 1 27 17" stroke="#200068" stroke-opacity="0.14" stroke-width="3" stroke-linecap="round"/>
    <path d="M 3 17 A 12 12 0 0 1 27 17" stroke="#30bd44" stroke-width="3" stroke-linecap="round"/>
    <line x1="15" y1="17" x2="27" y2="17" stroke="#30bd44" stroke-width="1.8" stroke-linecap="round"/>
    <circle cx="27" cy="17" r="2" fill="#30bd44"/>
    <circle cx="15" cy="17" r="2" fill="#200068" fill-opacity="0.35"/>
  </g><text x="70" y="260" font-family="Roboto, sans-serif" font-size="12" font-weight="600" fill="#5a5a6a">LG</text><g transform="translate(150,230) scale(1.45)">
    <path d="M 3 17 A 12 12 0 0 1 27 17" stroke="#200068" stroke-opacity="0.14" stroke-width="3" stroke-linecap="round"/>
    <path d="M 3 17 A 12 12 0 0 1 6.5 8.5" stroke="#30bd44" stroke-width="3" stroke-linecap="round"/>
    <line x1="15" y1="17" x2="7.2" y2="9.4" stroke="#30bd44" stroke-width="1.8" stroke-linecap="round"/>
    <circle cx="7.2" cy="9.4" r="2" fill="#30bd44"/>
    <circle cx="15" cy="17" r="2" fill="#200068" fill-opacity="0.35"/>
  </g><g transform="translate(260,230) scale(1.45)">
    <path d="M 3 17 A 12 12 0 0 1 27 17" stroke="#200068" stroke-opacity="0.14" stroke-width="3" stroke-linecap="round"/>
    <path d="M 3 17 A 12 12 0 0 1 16.9 5.1" stroke="#30bd44" stroke-width="3" stroke-linecap="round"/>
    <line x1="15" y1="17" x2="16.7" y2="6.2" stroke="#30bd44" stroke-width="1.8" stroke-linecap="round"/>
    <circle cx="16.7" cy="6.2" r="2" fill="#30bd44"/>
    <circle cx="15" cy="17" r="2" fill="#200068" fill-opacity="0.35"/>
  </g><g transform="translate(380,230) scale(1.45)">
    <path d="M 3 17 A 12 12 0 0 1 27 17" stroke="#200068" stroke-opacity="0.14" stroke-width="3" stroke-linecap="round"/>
    <path d="M 3 17 A 12 12 0 0 1 27 17" stroke="#30bd44" stroke-width="3" stroke-linecap="round"/>
    <line x1="15" y1="17" x2="27" y2="17" stroke="#30bd44" stroke-width="1.8" stroke-linecap="round"/>
    <circle cx="27" cy="17" r="2" fill="#30bd44"/>
    <circle cx="15" cy="17" r="2" fill="#200068" fill-opacity="0.35"/>
  </g>
</svg>
